<svg width="293" height="225" viewBox="0 0 293 225" fill="none" xmlns="http://www.w3.org/2000/svg">
<g clip-path="url(#clip0_1744_2455)">
<path d="M0 147.572C7.90248 157.584 18.4804 165.153 30.5087 169.404C26.8839 178.731 20.0987 186.491 11.3365 191.329C37.4971 192.666 63.7104 190.076 89.1028 183.645L80.1212 140.048C44.9994 148.709 16.4761 148.76 0 147.572Z" fill="url(#paint0_linear_1744_2455)"/>
<path d="M37.7856 173.031L74.1621 184.153L65.3807 166.007L37.7856 173.031Z" fill="url(#paint1_linear_1744_2455)"/>
<path d="M293 147.572C285.097 157.584 274.519 165.153 262.491 169.404C266.115 178.732 272.901 186.491 281.663 191.329C255.502 192.666 229.289 190.076 203.896 183.645L212.879 140.048C248.001 148.709 276.525 148.76 293 147.572Z" fill="url(#paint2_linear_1744_2455)"/>
<path d="M255.213 173.031L218.836 184.153L227.618 166.007L255.213 173.031Z" fill="url(#paint3_linear_1744_2455)"/>
<path d="M232.778 200.46L144.775 224.996L56.7766 200.46V24.5312L144.775 -0.00146484L232.778 24.5312V200.46Z" fill="url(#paint4_linear_1744_2455)"/>
<path d="M60.2693 197.818V27.1807L144.778 3.62158L229.291 27.1807V197.818L144.778 221.378L60.2693 197.818Z" fill="url(#paint5_linear_1744_2455)"/>
<path d="M63.762 195.168V29.8285L144.781 7.24023L225.804 29.8285V195.168L144.781 217.759L63.762 195.168Z" fill="url(#paint6_linear_1744_2455)"/>
<path d="M67.2466 192.52V32.4779L144.775 10.8579L222.308 32.4779V192.52L144.775 214.14L67.2466 192.52Z" fill="url(#paint7_linear_1744_2455)"/>
<path d="M43.057 129.175C111.956 137.053 181.529 137.053 250.428 129.175C252.096 143.754 253.765 158.334 255.433 172.914C183.209 181.172 110.278 181.172 38.053 172.914C39.7196 158.334 41.3876 143.754 43.057 129.175Z" fill="url(#paint8_linear_1744_2455)"/>
<path d="M254.501 164.761C254.398 163.865 254.295 162.965 254.192 162.06C182.787 170.129 110.7 170.129 39.2955 162.06L38.9866 164.761C110.597 172.853 182.891 172.853 254.501 164.761Z" fill="url(#paint9_linear_1744_2455)"/>
<path d="M251.274 136.563C181.81 144.447 111.676 144.447 42.2121 136.563C42.11 137.458 42.007 138.358 41.9031 139.263C111.573 147.172 181.914 147.172 251.583 139.263L251.274 136.563Z" fill="url(#paint10_linear_1744_2455)"/>
<path style="mix-blend-mode:overlay" opacity="0.8" d="M74.4482 92.9715V45.3604C74.4484 43.7938 74.9615 42.2701 75.9092 41.0223C76.8569 39.7745 78.1871 38.8711 79.6967 38.4501L142.847 20.8425C144.109 20.492 145.442 20.492 146.703 20.8425L209.856 38.4501C211.366 38.8707 212.697 39.774 213.644 41.0219C214.592 42.2698 215.105 43.7936 215.105 45.3604V92.9728L147.235 76.6933L74.4482 92.9715Z" fill="url(#paint11_linear_1744_2455)"/>
<path fill-rule="evenodd" clip-rule="evenodd" d="M145.84 39.732H145.891C147.188 39.7542 147.831 39.752 148.932 40.4713C149.668 40.9514 150.272 41.6071 150.69 42.3788C151.108 43.1506 151.326 44.0142 151.325 44.8915C151.338 45.8476 151.085 46.7884 150.594 47.6092C150.102 48.43 149.392 49.0986 148.543 49.5404C147.553 50.0355 146.963 50.0555 145.782 50.0555H144.626V59.3288H146.249V53.7786C147.006 53.8008 147.761 53.708 148.489 53.5033C152.271 52.5042 155 48.9831 155 44.8893C155.002 43.1043 154.469 41.3596 153.47 39.879C152.472 38.3983 151.052 37.2493 149.395 36.5794C148.036 36.0333 147.306 36.0022 146.005 36H144.626V45.0735C145.039 44.6237 145.359 44.0961 145.566 43.5217C145.773 42.9473 145.863 42.3375 145.831 41.7279L145.84 39.732ZM144.626 50.0555H143.425H142.312V56.2118H140.717C139.496 56.174 138.509 55.9076 138.153 54.7443C138.008 54.2825 137.93 53.037 137.93 51.0012V46.4367H141.251C141.877 46.4531 142.499 46.3412 143.08 46.1079C143.66 45.8746 144.186 45.5248 144.626 45.0802V36.0067H142.299V40.4469C142.317 42.0831 141.376 42.7868 140.039 42.8046H134.109V53.5144C134.109 54.8753 134.282 55.9454 134.627 56.7158C134.971 57.4854 135.562 58.1189 136.307 58.5163C137.577 59.2111 138.486 59.3199 139.952 59.3222C140.544 59.3222 141.454 59.3222 142.317 59.3222H144.626V50.0555Z" fill="white"/>
<path d="M136.852 36.1177H136.605C135.166 36.1177 134 37.2816 134 38.7174V38.7196C134 40.1554 135.166 41.3194 136.605 41.3194H136.852C138.29 41.3194 139.456 40.1554 139.456 38.7196V38.7174C139.456 37.2816 138.29 36.1177 136.852 36.1177Z" fill="#FFCB05"/>
<path d="M100.331 84V100H97.4092L90.4482 89.9297H90.3311V100H86.9482V84H89.917L96.8232 94.0625H96.9639V84H100.331ZM103.126 100V84H109.532C110.709 84 111.691 84.1745 112.478 84.5234C113.264 84.8724 113.855 85.3568 114.251 85.9766C114.647 86.5911 114.845 87.2995 114.845 88.1016C114.845 88.7266 114.72 89.276 114.47 89.75C114.22 90.2187 113.876 90.6042 113.438 90.9062C113.006 91.2031 112.511 91.4141 111.954 91.5391V91.6953C112.563 91.7214 113.134 91.8932 113.665 92.2109C114.201 92.5286 114.636 92.974 114.97 93.5469C115.303 94.1146 115.47 94.7917 115.47 95.5781C115.47 96.4271 115.259 97.1849 114.837 97.8516C114.42 98.513 113.803 99.0365 112.985 99.4219C112.168 99.8073 111.16 100 109.962 100H103.126ZM106.509 97.2344H109.267C110.209 97.2344 110.897 97.0547 111.329 96.6953C111.761 96.3307 111.978 95.8464 111.978 95.2422C111.978 94.7995 111.871 94.4089 111.657 94.0703C111.444 93.7318 111.139 93.4661 110.743 93.2734C110.353 93.0807 109.886 92.9844 109.345 92.9844H106.509V97.2344ZM106.509 90.6953H109.017C109.48 90.6953 109.892 90.6146 110.251 90.4531C110.616 90.2865 110.902 90.0521 111.11 89.75C111.324 89.4479 111.431 89.0859 111.431 88.6641C111.431 88.0859 111.225 87.6198 110.813 87.2656C110.407 86.9115 109.829 86.7344 109.079 86.7344H106.509V90.6953ZM117.671 100V84H128.265V86.7891H121.054V90.6016H127.562V93.3906H121.054V100H117.671ZM144.657 89.6016H141.235C141.173 89.1589 141.045 88.7656 140.853 88.4219C140.66 88.0729 140.412 87.776 140.11 87.5312C139.808 87.2865 139.459 87.099 139.063 86.9687C138.673 86.8385 138.248 86.7734 137.79 86.7734C136.962 86.7734 136.241 86.9792 135.626 87.3906C135.011 87.7969 134.535 88.3906 134.196 89.1719C133.858 89.9479 133.688 90.8906 133.688 92C133.688 93.1406 133.858 94.099 134.196 94.875C134.54 95.651 135.019 96.237 135.634 96.6328C136.248 97.0286 136.959 97.2266 137.767 97.2266C138.22 97.2266 138.639 97.1667 139.024 97.0469C139.415 96.9271 139.761 96.7526 140.063 96.5234C140.366 96.2891 140.616 96.0052 140.813 95.6719C141.017 95.3385 141.157 94.9583 141.235 94.5312L144.657 94.5469C144.569 95.2812 144.347 95.9896 143.993 96.6719C143.644 97.349 143.173 97.9557 142.579 98.4922C141.991 99.0234 141.287 99.4453 140.47 99.7578C139.657 100.065 138.738 100.219 137.712 100.219C136.285 100.219 135.009 99.8958 133.884 99.25C132.764 98.6042 131.879 97.6693 131.228 96.4453C130.582 95.2214 130.259 93.7396 130.259 92C130.259 90.2552 130.587 88.7708 131.243 87.5469C131.899 86.3229 132.79 85.3906 133.915 84.75C135.04 84.1042 136.306 83.7812 137.712 83.7812C138.639 83.7812 139.498 83.9115 140.29 84.1719C141.087 84.4323 141.793 84.8125 142.407 85.3125C143.022 85.8073 143.522 86.4141 143.907 87.1328C144.298 87.8516 144.548 88.6745 144.657 89.6016ZM154.497 90.6797V93.3203H147.2V90.6797H154.497ZM162.487 100V84H168.8C170.013 84 171.047 84.2318 171.901 84.6953C172.756 85.1536 173.407 85.7917 173.854 86.6094C174.308 87.4219 174.534 88.3594 174.534 89.4219C174.534 90.4844 174.305 91.4219 173.847 92.2344C173.388 93.0469 172.724 93.6797 171.854 94.1328C170.99 94.5859 169.943 94.8125 168.714 94.8125H164.69V92.1016H168.167C168.818 92.1016 169.354 91.9896 169.776 91.7656C170.203 91.5365 170.521 91.2214 170.729 90.8203C170.943 90.4141 171.05 89.9479 171.05 89.4219C171.05 88.8906 170.943 88.4271 170.729 88.0312C170.521 87.6302 170.203 87.3203 169.776 87.1016C169.349 86.8776 168.808 86.7656 168.151 86.7656H165.87V100H162.487ZM176.638 100V97.5625L182.333 92.2891C182.817 91.8203 183.224 91.3984 183.552 91.0234C183.885 90.6484 184.138 90.2812 184.31 89.9219C184.481 89.5573 184.567 89.1641 184.567 88.7422C184.567 88.2734 184.461 87.8698 184.247 87.5312C184.034 87.1875 183.742 86.9245 183.372 86.7422C183.002 86.5547 182.583 86.4609 182.114 86.4609C181.625 86.4609 181.198 86.5599 180.833 86.7578C180.468 86.9557 180.187 87.2396 179.989 87.6094C179.791 87.9792 179.692 88.4193 179.692 88.9297H176.481C176.481 87.8828 176.718 86.974 177.192 86.2031C177.666 85.4323 178.33 84.8359 179.185 84.4141C180.039 83.9922 181.023 83.7812 182.138 83.7812C183.284 83.7812 184.281 83.9844 185.13 84.3906C185.984 84.7917 186.648 85.349 187.122 86.0625C187.596 86.776 187.833 87.5937 187.833 88.5156C187.833 89.1198 187.713 89.7161 187.474 90.3047C187.239 90.8932 186.82 91.5469 186.216 92.2656C185.612 92.9792 184.76 93.8359 183.661 94.8359L181.325 97.125V97.2344H188.044V100H176.638ZM190.589 100V84H196.901C198.115 84 199.149 84.2318 200.003 84.6953C200.857 85.1536 201.508 85.7917 201.956 86.6094C202.409 87.4219 202.636 88.3594 202.636 89.4219C202.636 90.4844 202.407 91.4219 201.948 92.2344C201.49 93.0469 200.826 93.6797 199.956 94.1328C199.091 94.5859 198.045 94.8125 196.815 94.8125H192.792V92.1016H196.269C196.92 92.1016 197.456 91.9896 197.878 91.7656C198.305 91.5365 198.623 91.2214 198.831 90.8203C199.045 90.4141 199.151 89.9479 199.151 89.4219C199.151 88.8906 199.045 88.4271 198.831 88.0312C198.623 87.6302 198.305 87.3203 197.878 87.1016C197.451 86.8776 196.909 86.7656 196.253 86.7656H193.972V100H190.589ZM99.337 118V110.909H100.39V111.98H100.463C100.593 111.629 100.827 111.345 101.165 111.126C101.504 110.908 101.885 110.798 102.31 110.798C102.39 110.798 102.49 110.8 102.61 110.803C102.73 110.806 102.821 110.811 102.882 110.817V111.925C102.846 111.915 102.761 111.902 102.629 111.883C102.499 111.862 102.362 111.851 102.218 111.851C101.873 111.851 101.565 111.923 101.294 112.068C101.027 112.209 100.814 112.406 100.657 112.659C100.503 112.908 100.426 113.193 100.426 113.513V118H99.337ZM106.931 118.148C106.248 118.148 105.658 117.997 105.163 117.695C104.671 117.391 104.29 116.966 104.023 116.421C103.758 115.873 103.626 115.236 103.626 114.51C103.626 113.784 103.758 113.143 104.023 112.589C104.29 112.032 104.663 111.598 105.14 111.288C105.62 110.974 106.18 110.817 106.82 110.817C107.19 110.817 107.554 110.878 107.914 111.001C108.275 111.125 108.602 111.325 108.898 111.602C109.193 111.875 109.429 112.239 109.604 112.691C109.779 113.143 109.867 113.701 109.867 114.362V114.824H104.401V113.882H108.759C108.759 113.482 108.679 113.125 108.519 112.811C108.362 112.497 108.138 112.249 107.845 112.068C107.556 111.886 107.214 111.795 106.82 111.795C106.386 111.795 106.011 111.903 105.694 112.119C105.38 112.331 105.138 112.608 104.969 112.95C104.8 113.291 104.715 113.657 104.715 114.048V114.676C104.715 115.212 104.808 115.666 104.992 116.038C105.18 116.407 105.44 116.689 105.772 116.883C106.105 117.074 106.491 117.169 106.931 117.169C107.217 117.169 107.476 117.129 107.707 117.049C107.941 116.966 108.142 116.843 108.311 116.68C108.481 116.513 108.612 116.307 108.704 116.061L109.756 116.357C109.646 116.714 109.459 117.027 109.198 117.298C108.936 117.566 108.613 117.775 108.228 117.926C107.844 118.074 107.411 118.148 106.931 118.148ZM114.387 120.807C113.86 120.807 113.408 120.739 113.029 120.604C112.651 120.471 112.335 120.296 112.083 120.077C111.834 119.862 111.635 119.631 111.488 119.385L112.355 118.776C112.454 118.905 112.579 119.053 112.729 119.219C112.88 119.388 113.086 119.534 113.348 119.657C113.613 119.783 113.959 119.847 114.387 119.847C114.959 119.847 115.432 119.708 115.804 119.431C116.176 119.154 116.363 118.72 116.363 118.129V116.689H116.27C116.19 116.818 116.076 116.978 115.929 117.169C115.784 117.357 115.575 117.525 115.301 117.672C115.03 117.817 114.664 117.889 114.202 117.889C113.63 117.889 113.116 117.754 112.66 117.483C112.208 117.212 111.849 116.818 111.585 116.301C111.323 115.784 111.192 115.156 111.192 114.418C111.192 113.691 111.32 113.059 111.575 112.52C111.831 111.979 112.186 111.56 112.642 111.265C113.097 110.966 113.623 110.817 114.221 110.817C114.682 110.817 115.048 110.894 115.319 111.048C115.593 111.198 115.802 111.371 115.947 111.565C116.095 111.755 116.209 111.912 116.289 112.036H116.4V110.909H117.452V118.203C117.452 118.812 117.314 119.308 117.037 119.69C116.763 120.074 116.393 120.356 115.929 120.534C115.467 120.716 114.953 120.807 114.387 120.807ZM114.35 116.911C114.787 116.911 115.156 116.81 115.458 116.61C115.759 116.41 115.989 116.123 116.146 115.747C116.303 115.372 116.381 114.922 116.381 114.399C116.381 113.888 116.304 113.437 116.15 113.047C115.996 112.656 115.769 112.349 115.467 112.128C115.165 111.906 114.793 111.795 114.35 111.795C113.888 111.795 113.503 111.912 113.196 112.146C112.891 112.38 112.662 112.694 112.508 113.088C112.357 113.482 112.282 113.919 112.282 114.399C112.282 114.892 112.359 115.327 112.512 115.706C112.669 116.081 112.9 116.377 113.205 116.592C113.513 116.804 113.894 116.911 114.35 116.911ZM119.446 118V110.909H120.536V118H119.446ZM120 109.727C119.788 109.727 119.605 109.655 119.451 109.51C119.3 109.366 119.225 109.192 119.225 108.989C119.225 108.786 119.3 108.612 119.451 108.467C119.605 108.322 119.788 108.25 120 108.25C120.213 108.25 120.394 108.322 120.545 108.467C120.699 108.612 120.776 108.786 120.776 108.989C120.776 109.192 120.699 109.366 120.545 109.51C120.394 109.655 120.213 109.727 120 109.727ZM127.554 112.497L126.575 112.774C126.514 112.611 126.423 112.453 126.303 112.299C126.186 112.142 126.026 112.012 125.823 111.911C125.62 111.809 125.36 111.759 125.043 111.759C124.609 111.759 124.247 111.859 123.958 112.059C123.672 112.256 123.528 112.506 123.528 112.811C123.528 113.082 123.627 113.296 123.824 113.453C124.021 113.61 124.329 113.741 124.747 113.845L125.8 114.104C126.434 114.258 126.906 114.493 127.217 114.81C127.528 115.124 127.683 115.529 127.683 116.024C127.683 116.43 127.566 116.794 127.332 117.114C127.102 117.434 126.778 117.686 126.363 117.871C125.948 118.055 125.464 118.148 124.913 118.148C124.19 118.148 123.592 117.991 123.118 117.677C122.644 117.363 122.344 116.904 122.217 116.301L123.252 116.043C123.35 116.424 123.536 116.71 123.81 116.901C124.087 117.092 124.449 117.188 124.895 117.188C125.403 117.188 125.806 117.08 126.104 116.864C126.406 116.646 126.557 116.384 126.557 116.08C126.557 115.833 126.471 115.627 126.298 115.461C126.126 115.292 125.861 115.165 125.504 115.082L124.323 114.805C123.673 114.652 123.196 114.413 122.891 114.09C122.59 113.764 122.439 113.356 122.439 112.866C122.439 112.466 122.551 112.112 122.776 111.805C123.004 111.497 123.313 111.255 123.704 111.08C124.098 110.904 124.544 110.817 125.043 110.817C125.744 110.817 126.295 110.971 126.695 111.278C127.099 111.586 127.385 111.992 127.554 112.497ZM132.407 110.909V111.832H128.732V110.909H132.407ZM129.803 109.21H130.893V115.969C130.893 116.277 130.938 116.507 131.027 116.661C131.119 116.812 131.236 116.914 131.378 116.966C131.522 117.015 131.675 117.04 131.835 117.04C131.955 117.04 132.053 117.034 132.13 117.021C132.207 117.006 132.269 116.994 132.315 116.984L132.536 117.963C132.463 117.991 132.359 118.018 132.227 118.046C132.095 118.077 131.927 118.092 131.724 118.092C131.416 118.092 131.115 118.026 130.819 117.894C130.527 117.761 130.284 117.56 130.09 117.289C129.899 117.018 129.803 116.677 129.803 116.264V109.21ZM136.943 118.148C136.26 118.148 135.67 117.997 135.175 117.695C134.682 117.391 134.302 116.966 134.034 116.421C133.77 115.873 133.637 115.236 133.637 114.51C133.637 113.784 133.77 113.143 134.034 112.589C134.302 112.032 134.675 111.598 135.152 111.288C135.632 110.974 136.192 110.817 136.832 110.817C137.201 110.817 137.566 110.878 137.926 111.001C138.286 111.125 138.614 111.325 138.909 111.602C139.205 111.875 139.44 112.239 139.616 112.691C139.791 113.143 139.879 113.701 139.879 114.362V114.824H134.413V113.882H138.771C138.771 113.482 138.691 113.125 138.531 112.811C138.374 112.497 138.149 112.249 137.857 112.068C137.568 111.886 137.226 111.795 136.832 111.795C136.398 111.795 136.023 111.903 135.706 112.119C135.392 112.331 135.15 112.608 134.981 112.95C134.812 113.291 134.727 113.657 134.727 114.048V114.676C134.727 115.212 134.819 115.666 135.004 116.038C135.192 116.407 135.452 116.689 135.784 116.883C136.116 117.074 136.503 117.169 136.943 117.169C137.229 117.169 137.488 117.129 137.718 117.049C137.952 116.966 138.154 116.843 138.323 116.68C138.492 116.513 138.623 116.307 138.716 116.061L139.768 116.357C139.657 116.714 139.471 117.027 139.21 117.298C138.948 117.566 138.625 117.775 138.24 117.926C137.855 118.074 137.423 118.148 136.943 118.148ZM141.536 118V110.909H142.589V111.98H142.663C142.792 111.629 143.026 111.345 143.364 111.126C143.703 110.908 144.085 110.798 144.509 110.798C144.589 110.798 144.689 110.8 144.809 110.803C144.929 110.806 145.02 110.811 145.082 110.817V111.925C145.045 111.915 144.96 111.902 144.828 111.883C144.699 111.862 144.562 111.851 144.417 111.851C144.072 111.851 143.764 111.923 143.494 112.068C143.226 112.209 143.013 112.406 142.857 112.659C142.703 112.908 142.626 113.193 142.626 113.513V118H141.536ZM149.13 118.148C148.447 118.148 147.858 117.997 147.362 117.695C146.87 117.391 146.49 116.966 146.222 116.421C145.957 115.873 145.825 115.236 145.825 114.51C145.825 113.784 145.957 113.143 146.222 112.589C146.49 112.032 146.862 111.598 147.339 111.288C147.819 110.974 148.379 110.817 149.02 110.817C149.389 110.817 149.754 110.878 150.114 111.001C150.474 111.125 150.801 111.325 151.097 111.602C151.392 111.875 151.628 112.239 151.803 112.691C151.979 113.143 152.066 113.701 152.066 114.362V114.824H146.6V113.882H150.958C150.958 113.482 150.878 113.125 150.718 112.811C150.561 112.497 150.337 112.249 150.044 112.068C149.755 111.886 149.413 111.795 149.02 111.795C148.586 111.795 148.21 111.903 147.893 112.119C147.579 112.331 147.338 112.608 147.168 112.95C146.999 113.291 146.914 113.657 146.914 114.048V114.676C146.914 115.212 147.007 115.666 147.191 116.038C147.379 116.407 147.639 116.689 147.972 116.883C148.304 117.074 148.69 117.169 149.13 117.169C149.417 117.169 149.675 117.129 149.906 117.049C150.14 116.966 150.341 116.843 150.511 116.68C150.68 116.513 150.811 116.307 150.903 116.061L151.956 116.357C151.845 116.714 151.659 117.027 151.397 117.298C151.135 117.566 150.812 117.775 150.428 117.926C150.043 118.074 149.61 118.148 149.13 118.148ZM156.401 118.148C155.81 118.148 155.289 117.998 154.836 117.7C154.384 117.398 154.03 116.974 153.775 116.426C153.519 115.875 153.391 115.224 153.391 114.473C153.391 113.728 153.519 113.082 153.775 112.534C154.03 111.986 154.385 111.563 154.841 111.265C155.296 110.966 155.823 110.817 156.42 110.817C156.881 110.817 157.246 110.894 157.514 111.048C157.785 111.198 157.991 111.371 158.132 111.565C158.277 111.755 158.389 111.912 158.469 112.036H158.562V108.545H159.651V118H158.599V116.911H158.469C158.389 117.04 158.276 117.203 158.128 117.4C157.98 117.594 157.769 117.768 157.495 117.922C157.221 118.072 156.857 118.148 156.401 118.148ZM156.549 117.169C156.986 117.169 157.355 117.055 157.657 116.827C157.959 116.597 158.188 116.278 158.345 115.872C158.502 115.462 158.58 114.99 158.58 114.455C158.58 113.925 158.503 113.462 158.349 113.065C158.196 112.665 157.968 112.354 157.666 112.132C157.365 111.908 156.992 111.795 156.549 111.795C156.087 111.795 155.703 111.914 155.395 112.151C155.09 112.385 154.861 112.703 154.707 113.107C154.556 113.507 154.481 113.956 154.481 114.455C154.481 114.959 154.558 115.418 154.712 115.83C154.869 116.24 155.099 116.566 155.404 116.809C155.712 117.049 156.094 117.169 156.549 117.169ZM167.061 118L164.9 110.909H166.045L167.578 116.338H167.652L169.166 110.909H170.329L171.825 116.32H171.899L173.431 110.909H174.576L172.416 118H171.345L169.794 112.553H169.683L168.132 118H167.061ZM176.017 118V110.909H177.106V118H176.017ZM176.571 109.727C176.358 109.727 176.175 109.655 176.021 109.51C175.871 109.366 175.795 109.192 175.795 108.989C175.795 108.786 175.871 108.612 176.021 108.467C176.175 108.322 176.358 108.25 176.571 108.25C176.783 108.25 176.965 108.322 177.115 108.467C177.269 108.612 177.346 108.786 177.346 108.989C177.346 109.192 177.269 109.366 177.115 109.51C176.965 109.655 176.783 109.727 176.571 109.727ZM182.185 110.909V111.832H178.511V110.909H182.185ZM179.582 109.21H180.671V115.969C180.671 116.277 180.716 116.507 180.805 116.661C180.897 116.812 181.014 116.914 181.156 116.966C181.301 117.015 181.453 117.04 181.613 117.04C181.733 117.04 181.832 117.034 181.908 117.021C181.985 117.006 182.047 116.994 182.093 116.984L182.315 117.963C182.241 117.991 182.138 118.018 182.005 118.046C181.873 118.077 181.705 118.092 181.502 118.092C181.194 118.092 180.893 118.026 180.597 117.894C180.305 117.761 180.062 117.56 179.868 117.289C179.677 117.018 179.582 116.677 179.582 116.264V109.21ZM185.066 113.734V118H183.977V108.545H185.066V112.017H185.158C185.325 111.651 185.574 111.36 185.906 111.145C186.242 110.926 186.688 110.817 187.245 110.817C187.728 110.817 188.151 110.914 188.515 111.108C188.878 111.298 189.159 111.592 189.359 111.989C189.563 112.383 189.664 112.885 189.664 113.494V118H188.575V113.568C188.575 113.005 188.428 112.569 188.136 112.262C187.847 111.951 187.445 111.795 186.931 111.795C186.574 111.795 186.254 111.871 185.971 112.022C185.691 112.172 185.469 112.393 185.306 112.682C185.146 112.971 185.066 113.322 185.066 113.734Z" fill="white"/>
<path d="M44.3729 162V149.636H49.2508C50.1845 149.636 50.9813 149.803 51.6414 150.137C52.3054 150.467 52.8105 150.936 53.1566 151.544C53.5068 152.148 53.6819 152.858 53.6819 153.675C53.6819 154.496 53.5048 155.202 53.1506 155.794C52.7964 156.382 52.2833 156.832 51.6112 157.146C50.9431 157.46 50.1342 157.617 49.1843 157.617H45.9184V155.516H48.7618C49.2608 155.516 49.6754 155.448 50.0054 155.311C50.3354 155.174 50.5809 154.969 50.7419 154.695C50.9069 154.422 50.9894 154.082 50.9894 153.675C50.9894 153.265 50.9069 152.918 50.7419 152.637C50.5809 152.355 50.3334 152.142 49.9993 151.997C49.6693 151.848 49.2528 151.773 48.7497 151.773H46.9869V162H44.3729ZM51.0498 156.374L54.1226 162H51.2369L48.2305 156.374H51.0498ZM55.5292 162V149.636H63.8601V151.792H58.1432V154.738H63.4315V156.893H58.1432V159.845H63.8843V162H55.5292ZM72.6454 153.192C72.5971 152.705 72.3898 152.327 72.0236 152.057C71.6573 151.788 71.1603 151.653 70.5324 151.653C70.1058 151.653 69.7456 151.713 69.4518 151.834C69.158 151.951 68.9327 152.114 68.7757 152.323C68.6228 152.532 68.5463 152.77 68.5463 153.035C68.5382 153.257 68.5845 153.45 68.6851 153.615C68.7898 153.78 68.9327 153.923 69.1138 154.043C69.2949 154.16 69.5042 154.263 69.7416 154.351C69.9791 154.436 70.2326 154.508 70.5023 154.569L71.6131 154.834C72.1524 154.955 72.6474 155.116 73.0981 155.317C73.5489 155.518 73.9393 155.766 74.2693 156.06C74.5993 156.353 74.8549 156.7 75.036 157.098C75.2211 157.496 75.3157 157.953 75.3197 158.468C75.3157 159.225 75.1225 159.881 74.7402 160.436C74.3619 160.988 73.8145 161.416 73.0981 161.722C72.3858 162.024 71.5265 162.175 70.5204 162.175C69.5223 162.175 68.653 162.022 67.9124 161.716C67.1759 161.41 66.6004 160.958 66.1859 160.358C65.7753 159.754 65.56 159.008 65.5399 158.118H68.0694C68.0976 158.533 68.2163 158.879 68.4256 159.157C68.6389 159.43 68.9226 159.638 69.2768 159.778C69.635 159.915 70.0394 159.984 70.4902 159.984C70.9329 159.984 71.3172 159.919 71.6432 159.79C71.9733 159.662 72.2288 159.483 72.4099 159.253C72.591 159.024 72.6816 158.76 72.6816 158.462C72.6816 158.185 72.5991 157.951 72.4341 157.762C72.2731 157.573 72.0356 157.412 71.7217 157.279C71.4118 157.146 71.0315 157.026 70.5807 156.917L69.2345 156.579C68.1921 156.325 67.3691 155.929 66.7654 155.39C66.1617 154.85 65.8619 154.124 65.8659 153.21C65.8619 152.462 66.0611 151.808 66.4636 151.248C66.87 150.689 67.4275 150.252 68.1358 149.938C68.8441 149.624 69.649 149.467 70.5506 149.467C71.4682 149.467 72.2691 149.624 72.9533 149.938C73.6415 150.252 74.1767 150.689 74.5591 151.248C74.9414 151.808 75.1386 152.456 75.1507 153.192H72.6454ZM77.078 162V149.636H85.409V151.792H79.692V154.738H84.9803V156.893H79.692V159.845H85.4331V162H77.078ZM87.4872 162V149.636H92.365C93.2987 149.636 94.0956 149.803 94.7556 150.137C95.4197 150.467 95.9248 150.936 96.2709 151.544C96.621 152.148 96.7961 152.858 96.7961 153.675C96.7961 154.496 96.619 155.202 96.2649 155.794C95.9107 156.382 95.3976 156.832 94.7255 157.146C94.0574 157.46 93.2484 157.617 92.2986 157.617H89.0326V155.516H91.876C92.3751 155.516 92.7896 155.448 93.1196 155.311C93.4496 155.174 93.6952 154.969 93.8561 154.695C94.0211 154.422 94.1036 154.082 94.1036 153.675C94.1036 153.265 94.0211 152.918 93.8561 152.637C93.6952 152.355 93.4476 152.142 93.1136 151.997C92.7836 151.848 92.367 151.773 91.8639 151.773H90.1012V162H87.4872ZM94.164 156.374L97.2368 162H94.3512L91.3448 156.374H94.164ZM100.545 149.636L103.533 159.03H103.648L106.642 149.636H109.54L105.278 162H101.909L97.6413 149.636H100.545ZM111.028 162V149.636H119.359V151.792H113.642V154.738H118.931V156.893H113.642V159.845H119.383V162H111.028ZM125.372 162V149.636H130.322C131.232 149.636 131.99 149.771 132.598 150.041C133.206 150.31 133.663 150.685 133.969 151.164C134.274 151.639 134.427 152.186 134.427 152.806C134.427 153.289 134.331 153.713 134.138 154.08C133.944 154.442 133.679 154.74 133.341 154.973C133.007 155.202 132.624 155.365 132.194 155.462V155.583C132.665 155.603 133.105 155.736 133.516 155.981C133.93 156.227 134.266 156.571 134.524 157.013C134.782 157.452 134.91 157.975 134.91 158.583C134.91 159.239 134.747 159.825 134.421 160.34C134.099 160.851 133.622 161.255 132.991 161.553C132.359 161.851 131.58 162 130.654 162H125.372ZM127.986 159.863H130.117C130.845 159.863 131.377 159.724 131.711 159.446C132.045 159.165 132.212 158.79 132.212 158.324C132.212 157.981 132.129 157.68 131.964 157.418C131.799 157.156 131.564 156.951 131.258 156.802C130.956 156.653 130.596 156.579 130.177 156.579H127.986V159.863ZM127.986 154.81H129.924C130.282 154.81 130.6 154.748 130.878 154.623C131.159 154.494 131.381 154.313 131.542 154.08C131.707 153.846 131.789 153.566 131.789 153.24C131.789 152.794 131.63 152.433 131.312 152.16C130.998 151.886 130.552 151.749 129.972 151.749H127.986V154.81ZM138.742 162H135.941L140.209 149.636H143.578L147.84 162H145.039L141.942 152.462H141.845L138.742 162ZM138.567 157.14H145.184V159.181H138.567V157.14ZM159.669 149.636V162H157.411L152.033 154.218H151.942V162H149.328V149.636H151.622L156.959 157.412H157.067V149.636H159.669ZM161.829 162V149.636H164.443V155.088H164.606L169.055 149.636H172.188L167.6 155.172L172.243 162H169.116L165.729 156.917L164.443 158.487V162H161.829ZM188.846 155.818C188.846 157.166 188.59 158.313 188.079 159.259C187.572 160.205 186.88 160.927 186.002 161.426C185.129 161.922 184.147 162.169 183.056 162.169C181.958 162.169 180.972 161.92 180.098 161.42C179.225 160.921 178.535 160.199 178.028 159.253C177.52 158.307 177.267 157.162 177.267 155.818C177.267 154.47 177.52 153.323 178.028 152.377C178.535 151.431 179.225 150.711 180.098 150.216C180.972 149.717 181.958 149.467 183.056 149.467C184.147 149.467 185.129 149.717 186.002 150.216C186.88 150.711 187.572 151.431 188.079 152.377C188.59 153.323 188.846 154.47 188.846 155.818ZM186.196 155.818C186.196 154.945 186.065 154.208 185.803 153.609C185.546 153.009 185.181 152.554 184.71 152.244C184.24 151.934 183.688 151.779 183.056 151.779C182.424 151.779 181.873 151.934 181.402 152.244C180.931 152.554 180.565 153.009 180.303 153.609C180.046 154.208 179.917 154.945 179.917 155.818C179.917 156.692 180.046 157.428 180.303 158.028C180.565 158.627 180.931 159.082 181.402 159.392C181.873 159.702 182.424 159.857 183.056 159.857C183.688 159.857 184.24 159.702 184.71 159.392C185.181 159.082 185.546 158.627 185.803 158.028C186.065 157.428 186.196 156.692 186.196 155.818ZM190.782 162V149.636H198.968V151.792H193.396V154.738H198.425V156.893H193.396V162H190.782ZM207.275 149.636V162H204.661V149.636H207.275ZM219.767 149.636V162H217.509L212.13 154.218H212.04V162H209.426V149.636H211.72L217.056 157.412H217.165V149.636H219.767ZM226.309 162H221.927V149.636H226.346C227.589 149.636 228.66 149.884 229.557 150.379C230.455 150.87 231.145 151.576 231.628 152.498C232.115 153.42 232.358 154.522 232.358 155.806C232.358 157.094 232.115 158.201 231.628 159.126C231.145 160.052 230.451 160.762 229.545 161.257C228.644 161.752 227.565 162 226.309 162ZM224.541 159.76H226.201C226.973 159.76 227.623 159.623 228.151 159.35C228.682 159.072 229.08 158.643 229.346 158.064C229.616 157.48 229.75 156.728 229.75 155.806C229.75 154.893 229.616 154.146 229.346 153.566C229.08 152.987 228.684 152.56 228.157 152.287C227.63 152.013 226.98 151.876 226.207 151.876H224.541V159.76ZM236.909 149.636V162H234.295V149.636H236.909ZM241.19 162H238.389L242.657 149.636H246.026L250.288 162H247.487L244.39 152.462H244.293L241.19 162ZM241.015 157.14H247.632V159.181H241.015V157.14Z" fill="url(#paint12_linear_1744_2455)"/>
</g>
<defs>
<linearGradient id="paint0_linear_1744_2455" x1="-9.08849" y1="191.929" x2="13.4696" y2="158.88" gradientUnits="userSpaceOnUse">
<stop offset="0.761" stop-color="#C6A553"/>
<stop offset="1" stop-color="#97792B"/>
</linearGradient>
<linearGradient id="paint1_linear_1744_2455" x1="44.1515" y1="183.844" x2="52.5905" y2="158.705" gradientUnits="userSpaceOnUse">
<stop stop-color="#0C0C2D"/>
<stop offset="0.279" stop-color="#0E0E23"/>
<stop offset="0.535" stop-color="#10143B"/>
<stop offset="0.777" stop-color="#0C1020"/>
<stop offset="1" stop-color="#10123D"/>
</linearGradient>
<linearGradient id="paint2_linear_1744_2455" x1="285.783" y1="187.748" x2="271.312" y2="162.16" gradientUnits="userSpaceOnUse">
<stop offset="0.761" stop-color="#C6A553"/>
<stop offset="1" stop-color="#97792B"/>
</linearGradient>
<linearGradient id="paint3_linear_1744_2455" x1="225.202" y1="183.844" x2="233.641" y2="158.705" gradientUnits="userSpaceOnUse">
<stop stop-color="#0C0C2D"/>
<stop offset="0.279" stop-color="#0E0E23"/>
<stop offset="0.535" stop-color="#10143B"/>
<stop offset="0.777" stop-color="#0C1020"/>
<stop offset="1" stop-color="#10123D"/>
</linearGradient>
<linearGradient id="paint4_linear_1744_2455" x1="56.7766" y1="112.497" x2="232.778" y2="112.497" gradientUnits="userSpaceOnUse">
<stop stop-color="#97792B"/>
<stop offset="0.228" stop-color="#C6A553"/>
<stop offset="0.414" stop-color="#F9EA97"/>
<stop offset="0.586" stop-color="#DABC6E"/>
<stop offset="0.772" stop-color="#F3D680"/>
<stop offset="1" stop-color="#A98D46"/>
</linearGradient>
<linearGradient id="paint5_linear_1744_2455" x1="89.848" y1="217.676" x2="255.987" y2="26.0482" gradientUnits="userSpaceOnUse">
<stop stop-color="#0C0C2D"/>
<stop offset="0.279" stop-color="#0E0E23"/>
<stop offset="0.535" stop-color="#10143B"/>
<stop offset="0.777" stop-color="#0C1020"/>
<stop offset="1" stop-color="#10123D"/>
</linearGradient>
<linearGradient id="paint6_linear_1744_2455" x1="63.762" y1="112.5" x2="225.804" y2="112.5" gradientUnits="userSpaceOnUse">
<stop stop-color="#97792B"/>
<stop offset="0.228" stop-color="#C6A553"/>
<stop offset="0.414" stop-color="#F9EA97"/>
<stop offset="0.586" stop-color="#DABC6E"/>
<stop offset="0.772" stop-color="#F3D680"/>
<stop offset="1" stop-color="#A98D46"/>
</linearGradient>
<linearGradient id="paint7_linear_1744_2455" x1="94.3823" y1="210.684" x2="249.838" y2="34.4747" gradientUnits="userSpaceOnUse">
<stop stop-color="#0C0C2D"/>
<stop offset="0.279" stop-color="#0E0E23"/>
<stop offset="0.535" stop-color="#10143B"/>
<stop offset="0.777" stop-color="#0C1020"/>
<stop offset="1" stop-color="#10123D"/>
</linearGradient>
<linearGradient id="paint8_linear_1744_2455" x1="33.2706" y1="155.539" x2="229.81" y2="76.6339" gradientUnits="userSpaceOnUse">
<stop stop-color="#C6A553"/>
<stop offset="0.287" stop-color="#F9EA97"/>
<stop offset="0.539" stop-color="#DABC6E"/>
<stop offset="0.812" stop-color="#F2DF8D"/>
<stop offset="1" stop-color="#F3D680"/>
</linearGradient>
<linearGradient id="paint9_linear_1744_2455" x1="76.7016" y1="170.681" x2="77.0715" y2="157.172" gradientUnits="userSpaceOnUse">
<stop stop-color="#0C0C2D"/>
<stop offset="0.279" stop-color="#0E0E23"/>
<stop offset="0.535" stop-color="#10143B"/>
<stop offset="0.777" stop-color="#0C1020"/>
<stop offset="1" stop-color="#10123D"/>
</linearGradient>
<linearGradient id="paint10_linear_1744_2455" x1="78.5971" y1="145.048" x2="78.9654" y2="131.753" gradientUnits="userSpaceOnUse">
<stop stop-color="#0C0C2D"/>
<stop offset="0.279" stop-color="#0E0E23"/>
<stop offset="0.535" stop-color="#10143B"/>
<stop offset="0.777" stop-color="#0C1020"/>
<stop offset="1" stop-color="#10123D"/>
</linearGradient>
<linearGradient id="paint11_linear_1744_2455" x1="132.117" y1="7.91077" x2="137.565" y2="106.827" gradientUnits="userSpaceOnUse">
<stop stop-color="white"/>
<stop offset="0.09" stop-color="#F8FFFB" stop-opacity="0.867"/>
<stop offset="0.282" stop-color="#EAFFF5" stop-opacity="0.608"/>
<stop offset="0.465" stop-color="#DEFFF0" stop-opacity="0.392"/>
<stop offset="0.633" stop-color="#D5FFEC" stop-opacity="0.224"/>
<stop offset="0.784" stop-color="#CFFFE9" stop-opacity="0.102"/>
<stop offset="0.911" stop-color="#CBFFE7" stop-opacity="0.027"/>
<stop offset="1" stop-color="#CAFFE7" stop-opacity="0"/>
</linearGradient>
<linearGradient id="paint12_linear_1744_2455" x1="79.4" y1="168.558" x2="82.7477" y2="128.761" gradientUnits="userSpaceOnUse">
<stop stop-color="#0C0C2D"/>
<stop offset="0.279" stop-color="#0E0E23"/>
<stop offset="0.535" stop-color="#10143B"/>
<stop offset="0.777" stop-color="#0C1020"/>
<stop offset="1" stop-color="#10123D"/>
</linearGradient>
<clipPath id="clip0_1744_2455">
<rect width="293" height="225" fill="white"/>
</clipPath>
</defs>
</svg>
